<svg width="20" height="20" viewBox="0 0 20 20" fill="none" xmlns="http://www.w3.org/2000/svg">
<path d="M10 19.1658C8.71584 19.1671 7.44553 18.9008 6.27005 18.3839C4.91227 17.7803 3.72156 16.8557 2.80049 15.6897C1.87942 14.5238 1.25558 13.1514 0.982724 11.6908C0.709869 10.2302 0.796164 8.72518 1.23418 7.30529C1.67221 5.88543 2.44882 4.59334 3.49713 3.5403C4.3467 2.67944 5.35936 1.99659 6.4759 1.53164C7.59246 1.0667 8.79046 0.829009 10 0.832465C10.2897 0.832465 10.5839 0.846215 10.8736 0.873715C13.1636 1.13239 15.2773 2.22845 16.8081 3.95118C18.3389 5.67391 19.179 7.90172 19.1667 10.2063V10.8242C19.1667 11.7194 18.8127 12.5783 18.182 13.2137C17.5513 13.8491 16.695 14.2092 15.7998 14.2158C15.7411 14.2158 15.6815 14.2158 15.6228 14.2113C15.1037 14.181 14.5989 14.0297 14.1488 13.7694C13.6987 13.5092 13.3157 13.1472 13.0305 12.7125C12.4796 13.4876 11.7055 14.0763 10.8113 14.4001C9.91723 14.7239 8.94556 14.7673 8.02614 14.5245C7.10671 14.2817 6.28317 13.7643 5.66543 13.0413C5.04769 12.3183 4.66511 11.4242 4.56875 10.4781C4.47239 9.53203 4.66683 8.57916 5.12612 7.74645C5.58542 6.91377 6.28772 6.24096 7.13933 5.81779C7.99093 5.39462 8.95133 5.24122 9.89238 5.37806C10.8334 5.51489 11.7104 5.93546 12.4063 6.58363C12.4312 6.36378 12.536 6.16074 12.7007 6.01304C12.8654 5.86536 13.0787 5.78331 13.3 5.78246C13.5431 5.78246 13.7762 5.87905 13.9482 6.05096C14.1201 6.22286 14.2167 6.45602 14.2167 6.69913V10.6628C14.2005 11.0845 14.3451 11.4965 14.621 11.8157C14.897 12.1349 15.2839 12.3375 15.7035 12.3825H15.7723C15.9771 12.3829 16.18 12.3428 16.3694 12.2646C16.5588 12.1865 16.7309 12.0718 16.8759 11.927C17.0209 11.7823 17.1359 11.6104 17.2144 11.4211C17.2929 11.2319 17.3333 11.029 17.3333 10.8242V10.2054C17.3488 8.35696 16.6806 6.56798 15.4571 5.18234C14.2335 3.79671 12.541 2.91219 10.7049 2.6988C10.4721 2.67771 10.2356 2.6658 10 2.6658C8.97278 2.66543 7.95696 2.88087 7.01835 3.29813C6.07973 3.71541 5.23924 4.32521 4.55133 5.08804C3.86343 5.85088 3.34346 6.74971 3.0251 7.72632C2.70675 8.70291 2.59711 9.73554 2.7033 10.7573C2.84016 12.0531 3.31942 13.2891 4.09187 14.3384C4.86433 15.3878 5.90215 16.2126 7.09878 16.7283C8.29537 17.244 9.60767 17.4319 10.901 17.2727C12.1942 17.1136 13.4218 16.6131 14.4578 15.8228C14.5533 15.7495 14.6624 15.6959 14.7787 15.6648C14.895 15.6338 15.0163 15.6259 15.1356 15.6418C15.255 15.6577 15.37 15.6968 15.4742 15.7571C15.5784 15.8174 15.6697 15.8976 15.7429 15.9933C15.8161 16.0888 15.8697 16.1979 15.9008 16.3142C15.9318 16.4305 15.9396 16.5518 15.9238 16.6711C15.908 16.7905 15.8688 16.9055 15.8085 17.0097C15.7482 17.1139 15.6679 17.2052 15.5724 17.2784C13.971 18.4994 12.0137 19.1624 10 19.1658ZM9.25017 7.16572C8.68972 7.16554 8.14179 7.33156 7.67572 7.64279C7.20965 7.95402 6.84634 8.39647 6.63175 8.9142C6.41714 9.43194 6.36091 10.0016 6.47013 10.5514C6.57936 11.101 6.84914 11.606 7.24536 12.0024C7.64158 12.3987 8.14645 12.6687 8.69613 12.778C9.24577 12.8874 9.81548 12.8314 10.3333 12.617C10.8511 12.4026 11.2937 12.0394 11.6051 11.5734C11.9165 11.1074 12.0827 10.5595 12.0827 9.99917C12.0817 9.24814 11.7829 8.5281 11.252 7.997C10.7211 7.46587 10.0011 7.16693 9.25017 7.16572Z" fill="#C5CBD3"/>
</svg>
