<svg width="16" height="20" viewBox="0 0 16 20" fill="none" xmlns="http://www.w3.org/2000/svg">
<path fill-rule="evenodd" clip-rule="evenodd" d="M7.61905 14.0108V15.9326C7.61905 16.1335 7.79576 16.2963 8 16.2963C8.21039 16.2963 8.38095 16.1275 8.38095 15.9326V14.0108C8.82484 13.8583 9.14286 13.4467 9.14286 12.963C9.14286 12.3493 8.63118 11.8519 8 11.8519C7.36882 11.8519 6.85714 12.3493 6.85714 12.963C6.85714 13.4467 7.17517 13.8583 7.61905 14.0108ZM2.28571 8.14816V5.55499C2.28571 2.48645 4.84409 0 8 0C11.1495 0 13.7143 2.48705 13.7143 5.55499V8.14816C14.9784 8.15167 16 9.14838 16 10.3774V14.0741C16 17.3402 13.2714 20 9.90544 20H6.09456C2.73232 20 0 17.3469 0 14.0741V10.3774C0 9.14043 1.02273 8.15164 2.28571 8.14816ZM4.57143 8.14815V5.55619C4.57143 3.71055 6.10645 2.22222 8 2.22222C9.8897 2.22222 11.4286 3.71489 11.4286 5.55619V8.14815H4.57143Z" fill="#C1C7D0"/>
</svg>
